<?xml version="1.0" encoding="utf-8"?>
<!DOCTYPE svg PUBLIC "-//W3C//DTD SVG 1.1//EN" "http://www.w3.org/Graphics/SVG/1.1/DTD/svg11.dtd">
<svg version="1.1" xmlns="http://www.w3.org/2000/svg" xmlns:xlink="http://www.w3.org/1999/xlink" x="0px" y="0px" viewBox="0 0 1000 1000" enable-background="new 0 0 1000 1000" xml:space="preserve">
<g><path d="M500,10C229.8,10,10,229.8,10,500c0,270.2,219.8,490,490,490c270.2,0,490-219.8,490-490C990,229.8,770.2,10,500,10z M855.6,294.6H694.2C657,205.3,602.8,136.5,563.4,94.3C688.3,113.7,794.6,189.3,855.6,294.6z M521.8,294.6V114.3c34.4,35.7,86.5,98,124.2,180.3H521.8z M663.7,338.3c15.3,42.6,25.6,89.5,28.1,139.8H521.8V338.3H663.7z M478.2,294.6H354.1c37.7-82.2,89.8-144.5,124.1-180.2V294.6z M478.2,338.3v139.8H308.3c2.5-50.3,12.8-97.2,28.1-139.8H478.2z M264.1,478.1H90c2.6-49.4,13.5-96.6,32.1-139.8h167.5C275.7,381.2,266.3,428,264.1,478.1z M264.1,521.8c2.2,50.2,11.6,97,25.5,139.8H122.1c-18.6-43.3-29.5-90.5-32.1-139.8H264.1z M308.3,521.8h169.9v139.8H336.3C321.1,619.1,310.7,572.2,308.3,521.8z M478.2,705.4v180.3c-34.4-35.7-86.5-98-124.2-180.3H478.2z M521.8,705.4h124.1c-37.7,82.2-89.8,144.5-124.1,180.2V705.4z M521.8,661.7V521.8h169.9c-2.5,50.3-12.8,97.2-28.1,139.8H521.8z M735.9,521.8H910c-2.6,49.4-13.5,96.6-32.1,139.8H710.4C724.3,618.8,733.7,572,735.9,521.8z M735.9,478.1c-2.2-50.2-11.6-97-25.5-139.8h167.5c18.6,43.3,29.5,90.5,32.1,139.8H735.9z M436.6,94.3c-39.4,42.3-93.6,111-130.8,200.3H144.4C205.5,189.3,311.7,113.7,436.6,94.3z M144.4,705.4h161.4c37.2,89.3,91.4,158,130.7,200.3C311.7,886.2,205.5,810.7,144.4,705.4z M563.5,905.7c39.4-42.3,93.5-111,130.7-200.3h161.4C794.6,810.7,688.3,886.2,563.5,905.7z"/></g>
</svg>